{
	"patcher" : 	{
		"fileversion" : 1,
		"appversion" : 		{
			"major" : 7,
			"minor" : 3,
			"revision" : 5,
			"architecture" : "x86",
			"modernui" : 1
		}
,
		"rect" : [ 0.0, 45.0, 1571.0, 864.0 ],
		"bgcolor" : [ 0.14, 0.14, 0.14, 1.0 ],
		"editing_bgcolor" : [ 0.14, 0.14, 0.14, 1.0 ],
		"bglocked" : 0,
		"openinpresentation" : 0,
		"default_fontsize" : 12.0,
		"default_fontface" : 0,
		"default_fontname" : "Arial",
		"gridonopen" : 2,
		"gridsize" : [ 10.0, 10.0 ],
		"gridsnaponopen" : 2,
		"objectsnaponopen" : 1,
		"statusbarvisible" : 2,
		"toolbarvisible" : 0,
		"lefttoolbarpinned" : 0,
		"toptoolbarpinned" : 0,
		"righttoolbarpinned" : 0,
		"bottomtoolbarpinned" : 0,
		"toolbars_unpinned_last_save" : 15,
		"tallnewobj" : 0,
		"boxanimatetime" : 200,
		"enablehscroll" : 1,
		"enablevscroll" : 1,
		"devicewidth" : 0.0,
		"description" : "",
		"digest" : "",
		"tags" : "",
		"style" : "",
		"subpatcher_template" : "---TEMPLATE---",
		"boxes" : [ 			{
				"box" : 				{
					"id" : "obj-354",
					"maxclass" : "newobj",
					"numinlets" : 2,
					"numoutlets" : 1,
					"outlettype" : [ "" ],
					"patching_rect" : [ 670.0, 188.0, 52.0, 22.0 ],
					"style" : "",
					"text" : "midiinfo"
				}

			}
, 			{
				"box" : 				{
					"bgcolor" : [ 0.827451, 0.698039, 0.109804, 1.0 ],
					"id" : "obj-355",
					"maxclass" : "newobj",
					"numinlets" : 1,
					"numoutlets" : 1,
					"outlettype" : [ "" ],
					"patching_rect" : [ 670.0, 156.0, 72.0, 22.0 ],
					"style" : "",
					"text" : "loadmess 1"
				}

			}
, 			{
				"box" : 				{
					"id" : "obj-111",
					"maxclass" : "newobj",
					"numinlets" : 1,
					"numoutlets" : 2,
					"outlettype" : [ "int", "int" ],
					"patching_rect" : [ 659.0, 300.0, 49.0, 22.0 ],
					"style" : "",
					"text" : "unpack"
				}

			}
, 			{
				"box" : 				{
					"bgcolor" : [ 0.664245, 0.0, 0.045642, 1.0 ],
					"id" : "obj-110",
					"maxclass" : "newobj",
					"numinlets" : 0,
					"numoutlets" : 1,
					"outlettype" : [ "" ],
					"patching_rect" : [ 659.0, 260.0, 64.0, 22.0 ],
					"style" : "",
					"text" : "r cwCtlout"
				}

			}
, 			{
				"box" : 				{
					"id" : "obj-109",
					"maxclass" : "newobj",
					"numinlets" : 1,
					"numoutlets" : 1,
					"outlettype" : [ "" ],
					"patching_rect" : [ 740.5, 300.0, 79.0, 22.0 ],
					"style" : "",
					"text" : "prepend port"
				}

			}
, 			{
				"box" : 				{
					"id" : "obj-108",
					"maxclass" : "newobj",
					"numinlets" : 3,
					"numoutlets" : 0,
					"patching_rect" : [ 659.0, 360.0, 79.0, 22.0 ],
					"style" : "",
					"text" : "ctlout"
				}

			}
, 			{
				"box" : 				{
					"angle" : 269.355713,
					"grad1" : [ 0.199644, 0.199644, 0.199644, 1.0 ],
					"grad2" : [ 0.19663, 0.19663, 0.19663, 1.0 ],
					"id" : "obj-107",
					"maxclass" : "panel",
					"mode" : 1,
					"numinlets" : 1,
					"numoutlets" : 0,
					"patching_rect" : [ 783.5, 190.0, 20.0, 20.0 ],
					"presentation_rect" : [ 680.5, 332.625, 0.0, 0.0 ],
					"proportion" : 0.39,
					"pt1" : [ 0.509901, 0.069565 ],
					"pt2" : [ 0.5, 0.95 ],
					"style" : ""
				}

			}
, 			{
				"box" : 				{
					"bgcolor" : [ 0.664245, 0.0, 0.045642, 1.0 ],
					"id" : "obj-104",
					"maxclass" : "newobj",
					"numinlets" : 1,
					"numoutlets" : 0,
					"patching_rect" : [ 374.335449, 662.25, 66.0, 22.0 ],
					"presentation_rect" : [ 1147.289551, 194.5, 0.0, 0.0 ],
					"style" : "",
					"text" : "s cwCtlout"
				}

			}
, 			{
				"box" : 				{
					"id" : "obj-105",
					"maxclass" : "newobj",
					"numinlets" : 1,
					"numoutlets" : 1,
					"outlettype" : [ "" ],
					"patching_rect" : [ 374.335449, 632.25, 73.0, 22.0 ],
					"style" : "",
					"text" : "append 114"
				}

			}
, 			{
				"box" : 				{
					"activebgoncolor" : [ 0.952941, 0.564706, 0.098039, 1.0 ],
					"id" : "obj-106",
					"maxclass" : "live.tab",
					"num_lines_patching" : 2,
					"num_lines_presentation" : 0,
					"numinlets" : 1,
					"numoutlets" : 3,
					"outlettype" : [ "", "", "float" ],
					"parameter_enable" : 1,
					"patching_rect" : [ 374.335449, 567.875, 41.031334, 44.0 ],
					"presentation_rect" : [ 1147.289551, 97.125, 0.0, 0.0 ],
					"saved_attribute_attributes" : 					{
						"valueof" : 						{
							"parameter_longname" : "live.tab[3]",
							"parameter_shortname" : "live.tab",
							"parameter_type" : 2,
							"parameter_enum" : [ "Off", "On" ],
							"parameter_unitstyle" : 0
						}

					}
,
					"spacing_x" : 3.0,
					"spacing_y" : 3.0,
					"varname" : "live.tab[5]"
				}

			}
, 			{
				"box" : 				{
					"bgcolor" : [ 0.664245, 0.0, 0.045642, 1.0 ],
					"id" : "obj-102",
					"maxclass" : "newobj",
					"numinlets" : 1,
					"numoutlets" : 0,
					"patching_rect" : [ 286.125, 662.25, 66.0, 22.0 ],
					"presentation_rect" : [ 1059.5, 201.5, 0.0, 0.0 ],
					"style" : "",
					"text" : "s cwCtlout"
				}

			}
, 			{
				"box" : 				{
					"id" : "obj-103",
					"maxclass" : "newobj",
					"numinlets" : 1,
					"numoutlets" : 1,
					"outlettype" : [ "" ],
					"patching_rect" : [ 286.125, 632.25, 73.0, 22.0 ],
					"style" : "",
					"text" : "append 118"
				}

			}
, 			{
				"box" : 				{
					"bgcolor" : [ 0.664245, 0.0, 0.045642, 1.0 ],
					"id" : "obj-100",
					"maxclass" : "newobj",
					"numinlets" : 1,
					"numoutlets" : 0,
					"patching_rect" : [ 196.125, 662.25, 66.0, 22.0 ],
					"presentation_rect" : [ 969.5, 196.5, 0.0, 0.0 ],
					"style" : "",
					"text" : "s cwCtlout"
				}

			}
, 			{
				"box" : 				{
					"id" : "obj-101",
					"maxclass" : "newobj",
					"numinlets" : 1,
					"numoutlets" : 1,
					"outlettype" : [ "" ],
					"patching_rect" : [ 196.125, 632.25, 73.0, 22.0 ],
					"style" : "",
					"text" : "append 119"
				}

			}
, 			{
				"box" : 				{
					"bgcolor" : [ 0.664245, 0.0, 0.045642, 1.0 ],
					"id" : "obj-98",
					"maxclass" : "newobj",
					"numinlets" : 1,
					"numoutlets" : 0,
					"patching_rect" : [ 116.125, 662.25, 66.0, 22.0 ],
					"presentation_rect" : [ 883.5, 202.5, 0.0, 0.0 ],
					"style" : "",
					"text" : "s cwCtlout"
				}

			}
, 			{
				"box" : 				{
					"id" : "obj-99",
					"maxclass" : "newobj",
					"numinlets" : 1,
					"numoutlets" : 1,
					"outlettype" : [ "" ],
					"patching_rect" : [ 116.125, 632.25, 73.0, 22.0 ],
					"style" : "",
					"text" : "append 117"
				}

			}
, 			{
				"box" : 				{
					"bgcolor" : [ 0.664245, 0.0, 0.045642, 1.0 ],
					"id" : "obj-94",
					"maxclass" : "newobj",
					"numinlets" : 1,
					"numoutlets" : 0,
					"patching_rect" : [ 467.335449, 662.25, 66.0, 22.0 ],
					"presentation_rect" : [ 750.5, 200.0, 0.0, 0.0 ],
					"style" : "",
					"text" : "s cwCtlout"
				}

			}
, 			{
				"box" : 				{
					"id" : "obj-95",
					"maxclass" : "newobj",
					"numinlets" : 1,
					"numoutlets" : 1,
					"outlettype" : [ "" ],
					"patching_rect" : [ 467.335449, 632.25, 73.0, 22.0 ],
					"style" : "",
					"text" : "append 116"
				}

			}
, 			{
				"box" : 				{
					"activedialcolor" : [ 0.439216, 0.74902, 0.254902, 1.0 ],
					"activeneedlecolor" : [ 0.529648, 0.52966, 0.529557, 1.0 ],
					"focusbordercolor" : [ 0.529648, 0.52966, 0.529557, 1.0 ],
					"id" : "obj-96",
					"maxclass" : "live.dial",
					"numinlets" : 1,
					"numoutlets" : 2,
					"outlettype" : [ "", "float" ],
					"parameter_enable" : 1,
					"patching_rect" : [ 467.335449, 578.5, 44.0, 36.0 ],
					"presentation_rect" : [ 750.5, 108.875, 44.0, 36.0 ],
					"saved_attribute_attributes" : 					{
						"valueof" : 						{
							"parameter_longname" : "live.dial[11]",
							"parameter_shortname" : "live.dial",
							"parameter_type" : 0,
							"parameter_unitstyle" : 0
						}

					}
,
					"showname" : 0,
					"textcolor" : [ 0.862745, 0.870588, 0.878431, 1.0 ],
					"tribordercolor" : [ 0.862745, 0.870588, 0.878431, 1.0 ],
					"varname" : "live.dial[6]"
				}

			}
, 			{
				"box" : 				{
					"angle" : 269.355713,
					"grad1" : [ 0.199644, 0.199644, 0.199644, 1.0 ],
					"grad2" : [ 0.19663, 0.19663, 0.19663, 1.0 ],
					"id" : "obj-97",
					"maxclass" : "panel",
					"mode" : 1,
					"numinlets" : 1,
					"numoutlets" : 0,
					"patching_rect" : [ 493.835449, 524.875, 20.0, 20.0 ],
					"presentation_rect" : [ 752.5, 62.625, 0.0, 0.0 ],
					"proportion" : 0.39,
					"pt1" : [ 0.509901, 0.069565 ],
					"pt2" : [ 0.5, 0.95 ],
					"style" : ""
				}

			}
, 			{
				"box" : 				{
					"bgcolor" : [ 0.664245, 0.0, 0.045642, 1.0 ],
					"id" : "obj-92",
					"maxclass" : "newobj",
					"numinlets" : 1,
					"numoutlets" : 0,
					"patching_rect" : [ 37.125, 662.25, 66.0, 22.0 ],
					"presentation_rect" : [ 662.5625, 204.0, 0.0, 0.0 ],
					"style" : "",
					"text" : "s cwCtlout"
				}

			}
, 			{
				"box" : 				{
					"id" : "obj-93",
					"maxclass" : "newobj",
					"numinlets" : 1,
					"numoutlets" : 1,
					"outlettype" : [ "" ],
					"patching_rect" : [ 37.125, 632.25, 61.0, 22.0 ],
					"style" : "",
					"text" : "append 5"
				}

			}
, 			{
				"box" : 				{
					"bgcolor" : [ 0.664245, 0.0, 0.045642, 1.0 ],
					"id" : "obj-85",
					"maxclass" : "newobj",
					"numinlets" : 1,
					"numoutlets" : 0,
					"patching_rect" : [ 499.5625, 420.0, 66.0, 22.0 ],
					"presentation_rect" : [ 1078.5625, 252.0, 0.0, 0.0 ],
					"style" : "",
					"text" : "s cwCtlout"
				}

			}
, 			{
				"box" : 				{
					"bgcolor" : [ 0.664245, 0.0, 0.045642, 1.0 ],
					"id" : "obj-86",
					"maxclass" : "newobj",
					"numinlets" : 1,
					"numoutlets" : 0,
					"patching_rect" : [ 410.4375, 420.0, 66.0, 22.0 ],
					"presentation_rect" : [ 989.4375, 252.0, 0.0, 0.0 ],
					"style" : "",
					"text" : "s cwCtlout"
				}

			}
, 			{
				"box" : 				{
					"bgcolor" : [ 0.664245, 0.0, 0.045642, 1.0 ],
					"id" : "obj-87",
					"maxclass" : "newobj",
					"numinlets" : 1,
					"numoutlets" : 0,
					"patching_rect" : [ 320.0, 420.0, 66.0, 22.0 ],
					"presentation_rect" : [ 899.0, 252.0, 0.0, 0.0 ],
					"style" : "",
					"text" : "s cwCtlout"
				}

			}
, 			{
				"box" : 				{
					"bgcolor" : [ 0.664245, 0.0, 0.045642, 1.0 ],
					"id" : "obj-88",
					"maxclass" : "newobj",
					"numinlets" : 1,
					"numoutlets" : 0,
					"patching_rect" : [ 228.75, 420.0, 66.0, 22.0 ],
					"presentation_rect" : [ 807.75, 252.0, 0.0, 0.0 ],
					"style" : "",
					"text" : "s cwCtlout"
				}

			}
, 			{
				"box" : 				{
					"bgcolor" : [ 0.664245, 0.0, 0.045642, 1.0 ],
					"id" : "obj-89",
					"maxclass" : "newobj",
					"numinlets" : 1,
					"numoutlets" : 0,
					"patching_rect" : [ 140.0, 420.0, 66.0, 22.0 ],
					"presentation_rect" : [ 719.0, 252.0, 0.0, 0.0 ],
					"style" : "",
					"text" : "s cwCtlout"
				}

			}
, 			{
				"box" : 				{
					"bgcolor" : [ 0.664245, 0.0, 0.045642, 1.0 ],
					"id" : "obj-90",
					"maxclass" : "newobj",
					"numinlets" : 1,
					"numoutlets" : 0,
					"patching_rect" : [ 50.0, 420.0, 66.0, 22.0 ],
					"presentation_rect" : [ 629.0, 252.0, 0.0, 0.0 ],
					"style" : "",
					"text" : "s cwCtlout"
				}

			}
, 			{
				"box" : 				{
					"bgcolor" : [ 0.664245, 0.0, 0.045642, 1.0 ],
					"id" : "obj-83",
					"maxclass" : "newobj",
					"numinlets" : 1,
					"numoutlets" : 0,
					"patching_rect" : [ 499.5625, 200.0, 66.0, 22.0 ],
					"presentation_rect" : [ 506.0, 250.0, 0.0, 0.0 ],
					"style" : "",
					"text" : "s cwCtlout"
				}

			}
, 			{
				"box" : 				{
					"bgcolor" : [ 0.664245, 0.0, 0.045642, 1.0 ],
					"id" : "obj-84",
					"maxclass" : "newobj",
					"numinlets" : 1,
					"numoutlets" : 0,
					"patching_rect" : [ 410.4375, 200.0, 66.0, 22.0 ],
					"presentation_rect" : [ 416.0, 250.0, 0.0, 0.0 ],
					"style" : "",
					"text" : "s cwCtlout"
				}

			}
, 			{
				"box" : 				{
					"bgcolor" : [ 0.664245, 0.0, 0.045642, 1.0 ],
					"id" : "obj-79",
					"maxclass" : "newobj",
					"numinlets" : 1,
					"numoutlets" : 0,
					"patching_rect" : [ 320.0, 200.0, 66.0, 22.0 ],
					"presentation_rect" : [ 319.0, 254.0, 0.0, 0.0 ],
					"style" : "",
					"text" : "s cwCtlout"
				}

			}
, 			{
				"box" : 				{
					"bgcolor" : [ 0.664245, 0.0, 0.045642, 1.0 ],
					"id" : "obj-80",
					"maxclass" : "newobj",
					"numinlets" : 1,
					"numoutlets" : 0,
					"patching_rect" : [ 228.75, 200.0, 66.0, 22.0 ],
					"presentation_rect" : [ 229.0, 254.0, 0.0, 0.0 ],
					"style" : "",
					"text" : "s cwCtlout"
				}

			}
, 			{
				"box" : 				{
					"bgcolor" : [ 0.664245, 0.0, 0.045642, 1.0 ],
					"id" : "obj-78",
					"maxclass" : "newobj",
					"numinlets" : 1,
					"numoutlets" : 0,
					"patching_rect" : [ 140.0, 200.0, 66.0, 22.0 ],
					"presentation_rect" : [ 142.0, 247.0, 0.0, 0.0 ],
					"style" : "",
					"text" : "s cwCtlout"
				}

			}
, 			{
				"box" : 				{
					"bgcolor" : [ 0.664245, 0.0, 0.045642, 1.0 ],
					"id" : "obj-77",
					"maxclass" : "newobj",
					"numinlets" : 1,
					"numoutlets" : 0,
					"patching_rect" : [ 50.0, 200.0, 66.0, 22.0 ],
					"style" : "",
					"text" : "s cwCtlout"
				}

			}
, 			{
				"box" : 				{
					"id" : "obj-65",
					"maxclass" : "newobj",
					"numinlets" : 1,
					"numoutlets" : 1,
					"outlettype" : [ "" ],
					"patching_rect" : [ 499.5625, 390.0, 73.0, 22.0 ],
					"style" : "",
					"text" : "append 113"
				}

			}
, 			{
				"box" : 				{
					"activedialcolor" : [ 0.439216, 0.74902, 0.254902, 1.0 ],
					"activeneedlecolor" : [ 0.529648, 0.52966, 0.529557, 1.0 ],
					"focusbordercolor" : [ 0.529648, 0.52966, 0.529557, 1.0 ],
					"id" : "obj-66",
					"maxclass" : "live.dial",
					"numinlets" : 1,
					"numoutlets" : 2,
					"outlettype" : [ "", "float" ],
					"parameter_enable" : 1,
					"patching_rect" : [ 500.0, 336.25, 44.0, 36.0 ],
					"presentation_rect" : [ 1081.5, 114.75, 44.0, 36.0 ],
					"saved_attribute_attributes" : 					{
						"valueof" : 						{
							"parameter_longname" : "live.dial[8]",
							"parameter_shortname" : "live.dial",
							"parameter_type" : 0,
							"parameter_unitstyle" : 0
						}

					}
,
					"showname" : 0,
					"textcolor" : [ 0.862745, 0.870588, 0.878431, 1.0 ],
					"tribordercolor" : [ 0.862745, 0.870588, 0.878431, 1.0 ],
					"varname" : "live.dial[3]"
				}

			}
, 			{
				"box" : 				{
					"id" : "obj-67",
					"maxclass" : "newobj",
					"numinlets" : 1,
					"numoutlets" : 1,
					"outlettype" : [ "" ],
					"patching_rect" : [ 410.4375, 390.0, 72.0, 22.0 ],
					"style" : "",
					"text" : "append 111"
				}

			}
, 			{
				"box" : 				{
					"activedialcolor" : [ 0.439216, 0.74902, 0.254902, 1.0 ],
					"activeneedlecolor" : [ 0.529648, 0.52966, 0.529557, 1.0 ],
					"focusbordercolor" : [ 0.529648, 0.52966, 0.529557, 1.0 ],
					"id" : "obj-68",
					"maxclass" : "live.dial",
					"numinlets" : 1,
					"numoutlets" : 2,
					"outlettype" : [ "", "float" ],
					"parameter_enable" : 1,
					"patching_rect" : [ 410.4375, 336.25, 44.0, 36.0 ],
					"presentation_rect" : [ 991.9375, 114.75, 44.0, 36.0 ],
					"saved_attribute_attributes" : 					{
						"valueof" : 						{
							"parameter_longname" : "live.dial[9]",
							"parameter_shortname" : "live.dial",
							"parameter_type" : 0,
							"parameter_unitstyle" : 0
						}

					}
,
					"showname" : 0,
					"textcolor" : [ 0.862745, 0.870588, 0.878431, 1.0 ],
					"tribordercolor" : [ 0.862745, 0.870588, 0.878431, 1.0 ],
					"varname" : "live.dial[4]"
				}

			}
, 			{
				"box" : 				{
					"id" : "obj-69",
					"maxclass" : "newobj",
					"numinlets" : 1,
					"numoutlets" : 1,
					"outlettype" : [ "" ],
					"patching_rect" : [ 320.0, 390.0, 74.0, 22.0 ],
					"style" : "",
					"text" : "append 109"
				}

			}
, 			{
				"box" : 				{
					"id" : "obj-70",
					"maxclass" : "newobj",
					"numinlets" : 1,
					"numoutlets" : 1,
					"outlettype" : [ "" ],
					"patching_rect" : [ 228.75, 390.0, 74.0, 22.0 ],
					"style" : "",
					"text" : "append 107"
				}

			}
, 			{
				"box" : 				{
					"activebgoncolor" : [ 0.952941, 0.564706, 0.098039, 1.0 ],
					"bordercolor" : [ 0.196078, 0.196078, 0.196078, 0.0 ],
					"focusbordercolor" : [ 0.0, 0.019608, 0.078431, 0.0 ],
					"id" : "obj-71",
					"maxclass" : "live.tab",
					"num_lines_patching" : 4,
					"num_lines_presentation" : 0,
					"numinlets" : 1,
					"numoutlets" : 3,
					"outlettype" : [ "", "", "float" ],
					"parameter_enable" : 1,
					"patching_rect" : [ 228.75, 280.0, 60.0, 92.25 ],
					"presentation_rect" : [ 810.25, 58.5, 0.0, 0.0 ],
					"saved_attribute_attributes" : 					{
						"valueof" : 						{
							"parameter_longname" : "live.tab[15]",
							"parameter_shortname" : "live.tab[2]",
							"parameter_type" : 2,
							"parameter_enum" : [ "Note", "Velocity", "Mod", "LFO" ],
							"parameter_unitstyle" : 0
						}

					}
,
					"spacing_x" : 3.0,
					"spacing_y" : 3.0,
					"varname" : "live.tab[2]"
				}

			}
, 			{
				"box" : 				{
					"id" : "obj-72",
					"maxclass" : "newobj",
					"numinlets" : 1,
					"numoutlets" : 1,
					"outlettype" : [ "" ],
					"patching_rect" : [ 140.0, 390.0, 74.0, 22.0 ],
					"style" : "",
					"text" : "append 105"
				}

			}
, 			{
				"box" : 				{
					"id" : "obj-73",
					"maxclass" : "newobj",
					"numinlets" : 1,
					"numoutlets" : 1,
					"outlettype" : [ "" ],
					"patching_rect" : [ 50.0, 390.0, 74.0, 22.0 ],
					"style" : "",
					"text" : "append 103"
				}

			}
, 			{
				"box" : 				{
					"activebgoncolor" : [ 0.952941, 0.564706, 0.098039, 1.0 ],
					"bordercolor" : [ 0.196078, 0.196078, 0.196078, 0.0 ],
					"focusbordercolor" : [ 0.0, 0.019608, 0.078431, 0.0 ],
					"id" : "obj-74",
					"maxclass" : "live.tab",
					"num_lines_patching" : 4,
					"num_lines_presentation" : 0,
					"numinlets" : 1,
					"numoutlets" : 3,
					"outlettype" : [ "", "", "float" ],
					"parameter_enable" : 1,
					"patching_rect" : [ 140.0, 280.0, 60.0, 92.25 ],
					"presentation_rect" : [ 721.5, 58.5, 0.0, 0.0 ],
					"saved_attribute_attributes" : 					{
						"valueof" : 						{
							"parameter_longname" : "live.tab[23]",
							"parameter_shortname" : "live.tab[2]",
							"parameter_type" : 2,
							"parameter_enum" : [ "Note", "Velocity", "Mod", "LFO" ],
							"parameter_unitstyle" : 0
						}

					}
,
					"spacing_x" : 3.0,
					"spacing_y" : 3.0,
					"varname" : "live.tab[3]"
				}

			}
, 			{
				"box" : 				{
					"activebgoncolor" : [ 0.952941, 0.564706, 0.098039, 1.0 ],
					"annotation" : "Here's a clue for you.",
					"bordercolor" : [ 0.196078, 0.196078, 0.196078, 0.0 ],
					"focusbordercolor" : [ 0.0, 0.019608, 0.078431, 0.0 ],
					"hint" : "Hint, hint.",
					"id" : "obj-75",
					"maxclass" : "live.tab",
					"num_lines_patching" : 6,
					"num_lines_presentation" : 0,
					"numinlets" : 1,
					"numoutlets" : 3,
					"outlettype" : [ "", "", "float" ],
					"parameter_enable" : 1,
					"patching_rect" : [ 50.0, 280.0, 80.0, 92.25 ],
					"presentation_rect" : [ 631.5, 58.5, 0.0, 0.0 ],
					"saved_attribute_attributes" : 					{
						"valueof" : 						{
							"parameter_longname" : "live.tab[24]",
							"parameter_shortname" : "live.tab",
							"parameter_type" : 2,
							"parameter_enum" : [ "1", "2", "3", "4", "5", "6", "7", "8", "9", "10", "11", "12", "13", "14", "15", "16", "All" ],
							"parameter_unitstyle" : 0,
							"parameter_annotation_name" : "A Clue"
						}

					}
,
					"spacing_x" : 3.0,
					"spacing_y" : 3.0,
					"varname" : "live.tab[4]"
				}

			}
, 			{
				"box" : 				{
					"activedialcolor" : [ 0.439216, 0.74902, 0.254902, 1.0 ],
					"activeneedlecolor" : [ 0.529648, 0.52966, 0.529557, 1.0 ],
					"focusbordercolor" : [ 0.529648, 0.52966, 0.529557, 1.0 ],
					"id" : "obj-76",
					"maxclass" : "live.dial",
					"numinlets" : 1,
					"numoutlets" : 2,
					"outlettype" : [ "", "float" ],
					"parameter_enable" : 1,
					"patching_rect" : [ 320.4375, 336.25, 44.0, 36.0 ],
					"presentation_rect" : [ 901.9375, 114.75, 44.0, 36.0 ],
					"saved_attribute_attributes" : 					{
						"valueof" : 						{
							"parameter_longname" : "live.dial[10]",
							"parameter_shortname" : "live.dial",
							"parameter_type" : 0,
							"parameter_unitstyle" : 0
						}

					}
,
					"showname" : 0,
					"textcolor" : [ 0.862745, 0.870588, 0.878431, 1.0 ],
					"tribordercolor" : [ 0.862745, 0.870588, 0.878431, 1.0 ],
					"varname" : "live.dial[5]"
				}

			}
, 			{
				"box" : 				{
					"id" : "obj-27",
					"maxclass" : "newobj",
					"numinlets" : 1,
					"numoutlets" : 1,
					"outlettype" : [ "" ],
					"patching_rect" : [ 499.5625, 170.0, 73.0, 22.0 ],
					"style" : "",
					"text" : "append 112"
				}

			}
, 			{
				"box" : 				{
					"activedialcolor" : [ 0.439216, 0.74902, 0.254902, 1.0 ],
					"activeneedlecolor" : [ 0.529648, 0.52966, 0.529557, 1.0 ],
					"focusbordercolor" : [ 0.529648, 0.52966, 0.529557, 1.0 ],
					"id" : "obj-28",
					"maxclass" : "live.dial",
					"numinlets" : 1,
					"numoutlets" : 2,
					"outlettype" : [ "", "float" ],
					"parameter_enable" : 1,
					"patching_rect" : [ 500.0, 116.25, 44.0, 36.0 ],
					"presentation_rect" : [ 500.4375, 118.25, 44.0, 36.0 ],
					"saved_attribute_attributes" : 					{
						"valueof" : 						{
							"parameter_longname" : "live.dial[4]",
							"parameter_shortname" : "live.dial",
							"parameter_type" : 0,
							"parameter_unitstyle" : 0
						}

					}
,
					"showname" : 0,
					"textcolor" : [ 0.862745, 0.870588, 0.878431, 1.0 ],
					"tribordercolor" : [ 0.862745, 0.870588, 0.878431, 1.0 ],
					"varname" : "live.dial[2]"
				}

			}
, 			{
				"box" : 				{
					"id" : "obj-25",
					"maxclass" : "newobj",
					"numinlets" : 1,
					"numoutlets" : 1,
					"outlettype" : [ "" ],
					"patching_rect" : [ 410.4375, 170.0, 73.0, 22.0 ],
					"style" : "",
					"text" : "append 110"
				}

			}
, 			{
				"box" : 				{
					"activedialcolor" : [ 0.439216, 0.74902, 0.254902, 1.0 ],
					"activeneedlecolor" : [ 0.529648, 0.52966, 0.529557, 1.0 ],
					"focusbordercolor" : [ 0.529648, 0.52966, 0.529557, 1.0 ],
					"id" : "obj-26",
					"maxclass" : "live.dial",
					"numinlets" : 1,
					"numoutlets" : 2,
					"outlettype" : [ "", "float" ],
					"parameter_enable" : 1,
					"patching_rect" : [ 410.4375, 116.25, 44.0, 36.0 ],
					"presentation_rect" : [ 460.4375, 113.75, 44.0, 36.0 ],
					"saved_attribute_attributes" : 					{
						"valueof" : 						{
							"parameter_longname" : "live.dial[3]",
							"parameter_shortname" : "live.dial",
							"parameter_type" : 0,
							"parameter_unitstyle" : 0
						}

					}
,
					"showname" : 0,
					"textcolor" : [ 0.862745, 0.870588, 0.878431, 1.0 ],
					"tribordercolor" : [ 0.862745, 0.870588, 0.878431, 1.0 ],
					"varname" : "live.dial[1]"
				}

			}
, 			{
				"box" : 				{
					"id" : "obj-24",
					"maxclass" : "newobj",
					"numinlets" : 1,
					"numoutlets" : 1,
					"outlettype" : [ "" ],
					"patching_rect" : [ 320.0, 170.0, 74.0, 22.0 ],
					"style" : "",
					"text" : "append 108"
				}

			}
, 			{
				"box" : 				{
					"id" : "obj-22",
					"maxclass" : "newobj",
					"numinlets" : 1,
					"numoutlets" : 1,
					"outlettype" : [ "" ],
					"patching_rect" : [ 228.75, 170.0, 74.0, 22.0 ],
					"style" : "",
					"text" : "append 106"
				}

			}
, 			{
				"box" : 				{
					"activebgoncolor" : [ 0.952941, 0.564706, 0.098039, 1.0 ],
					"bordercolor" : [ 0.196078, 0.196078, 0.196078, 0.0 ],
					"focusbordercolor" : [ 0.0, 0.019608, 0.078431, 0.0 ],
					"id" : "obj-23",
					"maxclass" : "live.tab",
					"num_lines_patching" : 4,
					"num_lines_presentation" : 0,
					"numinlets" : 1,
					"numoutlets" : 3,
					"outlettype" : [ "", "", "float" ],
					"parameter_enable" : 1,
					"patching_rect" : [ 228.75, 60.0, 60.0, 92.25 ],
					"presentation_rect" : [ 276.5, 62.0, 0.0, 0.0 ],
					"saved_attribute_attributes" : 					{
						"valueof" : 						{
							"parameter_longname" : "live.tab[2]",
							"parameter_shortname" : "live.tab[2]",
							"parameter_type" : 2,
							"parameter_enum" : [ "Note", "Velocity", "Mod", "LFO" ],
							"parameter_unitstyle" : 0
						}

					}
,
					"spacing_x" : 3.0,
					"spacing_y" : 3.0,
					"varname" : "live.tab[1]"
				}

			}
, 			{
				"box" : 				{
					"id" : "obj-21",
					"maxclass" : "newobj",
					"numinlets" : 1,
					"numoutlets" : 1,
					"outlettype" : [ "" ],
					"patching_rect" : [ 140.0, 170.0, 74.0, 22.0 ],
					"style" : "",
					"text" : "append 104"
				}

			}
, 			{
				"box" : 				{
					"id" : "obj-20",
					"maxclass" : "newobj",
					"numinlets" : 1,
					"numoutlets" : 1,
					"outlettype" : [ "" ],
					"patching_rect" : [ 50.0, 170.0, 74.0, 22.0 ],
					"style" : "",
					"text" : "append 102"
				}

			}
, 			{
				"box" : 				{
					"angle" : 269.355713,
					"grad1" : [ 0.199644, 0.199644, 0.199644, 1.0 ],
					"grad2" : [ 0.19663, 0.19663, 0.19663, 1.0 ],
					"id" : "obj-18",
					"maxclass" : "panel",
					"mode" : 1,
					"numinlets" : 1,
					"numoutlets" : 0,
					"patching_rect" : [ 10.0, 300.0, 20.0, 20.0 ],
					"proportion" : 0.39,
					"pt1" : [ 0.509901, 0.069565 ],
					"pt2" : [ 0.5, 0.95 ],
					"style" : ""
				}

			}
, 			{
				"box" : 				{
					"angle" : 269.355713,
					"grad1" : [ 0.199644, 0.199644, 0.199644, 1.0 ],
					"grad2" : [ 0.19663, 0.19663, 0.19663, 1.0 ],
					"id" : "obj-19",
					"maxclass" : "panel",
					"mode" : 1,
					"numinlets" : 1,
					"numoutlets" : 0,
					"patching_rect" : [ 10.0, 80.0, 20.0, 20.0 ],
					"proportion" : 0.39,
					"pt1" : [ 0.509901, 0.069565 ],
					"pt2" : [ 0.5, 0.95 ],
					"style" : ""
				}

			}
, 			{
				"box" : 				{
					"angle" : 269.355713,
					"grad1" : [ 0.199644, 0.199644, 0.199644, 1.0 ],
					"grad2" : [ 0.19663, 0.19663, 0.19663, 1.0 ],
					"id" : "obj-17",
					"maxclass" : "panel",
					"mode" : 1,
					"numinlets" : 1,
					"numoutlets" : 0,
					"patching_rect" : [ 286.640625, 524.875, 20.0, 20.0 ],
					"presentation_rect" : [ 809.333313, 13.333333, 0.0, 0.0 ],
					"proportion" : 0.39,
					"pt1" : [ 0.509901, 0.069565 ],
					"pt2" : [ 0.5, 0.95 ],
					"style" : ""
				}

			}
, 			{
				"box" : 				{
					"angle" : 269.355713,
					"grad1" : [ 0.199644, 0.199644, 0.199644, 1.0 ],
					"grad2" : [ 0.19663, 0.19663, 0.19663, 1.0 ],
					"id" : "obj-12",
					"maxclass" : "panel",
					"mode" : 1,
					"numinlets" : 1,
					"numoutlets" : 0,
					"patching_rect" : [ 390.835449, 524.875, 20.0, 20.0 ],
					"presentation_rect" : [ 782.0, 12.0, 0.0, 0.0 ],
					"proportion" : 0.39,
					"pt1" : [ 0.509901, 0.069565 ],
					"pt2" : [ 0.5, 0.95 ],
					"style" : ""
				}

			}
, 			{
				"box" : 				{
					"angle" : 269.355713,
					"grad1" : [ 0.199644, 0.199644, 0.199644, 1.0 ],
					"grad2" : [ 0.19663, 0.19663, 0.19663, 1.0 ],
					"id" : "obj-13",
					"maxclass" : "panel",
					"mode" : 1,
					"numinlets" : 1,
					"numoutlets" : 0,
					"patching_rect" : [ 163.125, 524.875, 20.0, 20.0 ],
					"presentation_rect" : [ 752.0, 12.0, 0.0, 0.0 ],
					"proportion" : 0.39,
					"pt1" : [ 0.509901, 0.069565 ],
					"pt2" : [ 0.5, 0.95 ],
					"style" : ""
				}

			}
, 			{
				"box" : 				{
					"bgfillcolor_angle" : 270.0,
					"bgfillcolor_autogradient" : 0.0,
					"bgfillcolor_color" : [ 0.290196, 0.309804, 0.301961, 1.0 ],
					"bgfillcolor_color1" : [ 0.529648, 0.529632, 0.529641, 1.0 ],
					"bgfillcolor_color2" : [ 0.529648, 0.529632, 0.529641, 1.0 ],
					"bgfillcolor_proportion" : 0.39,
					"bgfillcolor_type" : "gradient",
					"fontface" : 1,
					"fontsize" : 10.0,
					"id" : "obj-357",
					"items" : [ "AU DLS Synth 1", ",", "IAC Driver Bus 1", ",", "from Max 1", ",", "from Max 2", ",", "Scarlett 18i6 USB", ",", "iConnectMIDI4+ _Front", ",", "iConnectMIDI4+ _0Coast", ",", "iConnectMIDI4+ _VolcaBeats", ",", "iConnectMIDI4+ _Four", ",", "iConnectMIDI4+ _BananaAir", ",", "iConnectMIDI4+ _USB2", ",", "iConnectMIDI4+ _USBHost 1", ",", "iConnectMIDI4+ _USBHost 2", ",", "iConnectMIDI4+ _USBHost 3", ",", "iConnectMIDI4+ _USBHost 4", ",", "iConnectMIDI4+ _USBHost 5", ",", "iConnectMIDI4+ _USBHost 6", ",", "iConnectMIDI4+ _ETH 1", ",", "iConnectMIDI4+ _ETH 2", ",", "iConnectMIDI4+ _ETH 3", ",", "iConnectMIDI4+ _ETH 4", ",", "nanoKONTROL CTRL" ],
					"maxclass" : "umenu",
					"numinlets" : 1,
					"numoutlets" : 3,
					"outlettype" : [ "int", "", "" ],
					"parameter_enable" : 1,
					"patching_rect" : [ 670.0, 220.0, 160.0, 20.0 ],
					"saved_attribute_attributes" : 					{
						"valueof" : 						{
							"parameter_longname" : "umenu[8]",
							"parameter_shortname" : "umenu",
							"parameter_type" : 3,
							"parameter_invisible" : 1
						}

					}
,
					"style" : "",
					"textcolor" : [ 0.0, 0.0, 0.0, 1.0 ],
					"truncate" : 2,
					"varname" : "umenu[8]"
				}

			}
, 			{
				"box" : 				{
					"fontface" : 1,
					"fontsize" : 10.0,
					"id" : "obj-351",
					"maxclass" : "comment",
					"numinlets" : 1,
					"numoutlets" : 0,
					"patching_rect" : [ 746.5, 160.0, 94.0, 18.0 ],
					"style" : "",
					"text" : "0-Coast MIDI Port",
					"textcolor" : [ 0.862745, 0.870588, 0.878431, 1.0 ],
					"textjustification" : 1
				}

			}
, 			{
				"box" : 				{
					"activebgoncolor" : [ 0.952941, 0.564706, 0.098039, 1.0 ],
					"id" : "obj-281",
					"maxclass" : "live.tab",
					"num_lines_patching" : 2,
					"num_lines_presentation" : 0,
					"numinlets" : 1,
					"numoutlets" : 3,
					"outlettype" : [ "", "", "float" ],
					"parameter_enable" : 1,
					"patching_rect" : [ 196.125, 570.5, 38.94799, 44.0 ],
					"saved_attribute_attributes" : 					{
						"valueof" : 						{
							"parameter_longname" : "live.tab[10]",
							"parameter_shortname" : "live.tab",
							"parameter_type" : 2,
							"parameter_enum" : [ "Reg", "Latch" ],
							"parameter_unitstyle" : 0
						}

					}
,
					"spacing_x" : 3.0,
					"spacing_y" : 3.0,
					"varname" : "live.tab[6]"
				}

			}
, 			{
				"box" : 				{
					"activebgoncolor" : [ 0.952941, 0.564706, 0.098039, 1.0 ],
					"id" : "obj-282",
					"maxclass" : "live.tab",
					"num_lines_patching" : 2,
					"num_lines_presentation" : 0,
					"numinlets" : 1,
					"numoutlets" : 3,
					"outlettype" : [ "", "", "float" ],
					"parameter_enable" : 1,
					"patching_rect" : [ 116.125, 570.5, 41.031334, 44.0 ],
					"saved_attribute_attributes" : 					{
						"valueof" : 						{
							"parameter_longname" : "live.tab[13]",
							"parameter_shortname" : "live.tab",
							"parameter_type" : 2,
							"parameter_enum" : [ "Off", "On" ],
							"parameter_unitstyle" : 0
						}

					}
,
					"spacing_x" : 3.0,
					"spacing_y" : 3.0,
					"varname" : "live.tab[7]"
				}

			}
, 			{
				"box" : 				{
					"fontface" : 1,
					"fontsize" : 10.0,
					"id" : "obj-283",
					"linecount" : 2,
					"maxclass" : "comment",
					"numinlets" : 1,
					"numoutlets" : 0,
					"patching_rect" : [ 508.0625, 12.25, 57.0, 29.0 ],
					"style" : "",
					"text" : "Minimum\nVelocity",
					"textcolor" : [ 0.862745, 0.870588, 0.878431, 1.0 ],
					"textjustification" : 1
				}

			}
, 			{
				"box" : 				{
					"fontface" : 1,
					"fontsize" : 10.0,
					"id" : "obj-284",
					"linecount" : 2,
					"maxclass" : "comment",
					"numinlets" : 1,
					"numoutlets" : 0,
					"patching_rect" : [ 415.0, 12.25, 64.0, 29.0 ],
					"style" : "",
					"text" : "Aftertouch\nRange",
					"textcolor" : [ 0.862745, 0.870588, 0.878431, 1.0 ],
					"textjustification" : 1
				}

			}
, 			{
				"box" : 				{
					"fontface" : 1,
					"fontsize" : 10.0,
					"id" : "obj-285",
					"linecount" : 2,
					"maxclass" : "comment",
					"numinlets" : 1,
					"numoutlets" : 0,
					"patching_rect" : [ 322.5, 12.25, 69.0, 29.0 ],
					"style" : "",
					"text" : "Pitch \nBend Range",
					"textcolor" : [ 0.862745, 0.870588, 0.878431, 1.0 ],
					"textjustification" : 1
				}

			}
, 			{
				"box" : 				{
					"activebgoncolor" : [ 0.952941, 0.564706, 0.098039, 1.0 ],
					"bordercolor" : [ 0.196078, 0.196078, 0.196078, 0.0 ],
					"focusbordercolor" : [ 0.0, 0.019608, 0.078431, 0.0 ],
					"id" : "obj-290",
					"maxclass" : "live.tab",
					"num_lines_patching" : 4,
					"num_lines_presentation" : 0,
					"numinlets" : 1,
					"numoutlets" : 3,
					"outlettype" : [ "", "", "float" ],
					"parameter_enable" : 1,
					"patching_rect" : [ 140.0, 60.0, 60.0, 92.25 ],
					"saved_attribute_attributes" : 					{
						"valueof" : 						{
							"parameter_longname" : "live.tab[20]",
							"parameter_shortname" : "live.tab[2]",
							"parameter_type" : 2,
							"parameter_enum" : [ "Note", "Velocity", "Mod", "LFO" ],
							"parameter_unitstyle" : 0
						}

					}
,
					"spacing_x" : 3.0,
					"spacing_y" : 3.0,
					"varname" : "live.tab[17]"
				}

			}
, 			{
				"box" : 				{
					"activebgoncolor" : [ 0.952941, 0.564706, 0.098039, 1.0 ],
					"annotation" : "Here's a clue for you.",
					"bordercolor" : [ 0.196078, 0.196078, 0.196078, 0.0 ],
					"focusbordercolor" : [ 0.0, 0.019608, 0.078431, 0.0 ],
					"hint" : "Hint, hint.",
					"id" : "obj-292",
					"maxclass" : "live.tab",
					"num_lines_patching" : 6,
					"num_lines_presentation" : 0,
					"numinlets" : 1,
					"numoutlets" : 3,
					"outlettype" : [ "", "", "float" ],
					"parameter_enable" : 1,
					"patching_rect" : [ 50.0, 60.0, 80.0, 92.25 ],
					"saved_attribute_attributes" : 					{
						"valueof" : 						{
							"parameter_longname" : "live.tab[22]",
							"parameter_shortname" : "live.tab",
							"parameter_type" : 2,
							"parameter_enum" : [ "1", "2", "3", "4", "5", "6", "7", "8", "9", "10", "11", "12", "13", "14", "15", "16", "All" ],
							"parameter_unitstyle" : 0,
							"parameter_annotation_name" : "A Clue"
						}

					}
,
					"spacing_x" : 3.0,
					"spacing_y" : 3.0,
					"varname" : "live.tab[19]"
				}

			}
, 			{
				"box" : 				{
					"fontface" : 1,
					"fontsize" : 10.0,
					"id" : "obj-294",
					"maxclass" : "comment",
					"numinlets" : 1,
					"numoutlets" : 0,
					"patching_rect" : [ 369.335449, 480.0, 63.0, 18.0 ],
					"style" : "",
					"text" : "MIDI Clock",
					"textcolor" : [ 0.862745, 0.870588, 0.878431, 1.0 ],
					"textjustification" : 1
				}

			}
, 			{
				"box" : 				{
					"fontface" : 1,
					"fontsize" : 10.0,
					"id" : "obj-296",
					"maxclass" : "comment",
					"numinlets" : 1,
					"numoutlets" : 0,
					"patching_rect" : [ 273.156372, 480.0, 44.0, 18.0 ],
					"style" : "",
					"text" : "Legato",
					"textcolor" : [ 0.862745, 0.870588, 0.878431, 1.0 ],
					"textjustification" : 1
				}

			}
, 			{
				"box" : 				{
					"activebgoncolor" : [ 0.952941, 0.564706, 0.098039, 1.0 ],
					"id" : "obj-297",
					"maxclass" : "live.tab",
					"num_lines_patching" : 2,
					"num_lines_presentation" : 0,
					"numinlets" : 1,
					"numoutlets" : 3,
					"outlettype" : [ "", "", "float" ],
					"parameter_enable" : 1,
					"patching_rect" : [ 286.125, 570.5, 41.031334, 44.0 ],
					"saved_attribute_attributes" : 					{
						"valueof" : 						{
							"parameter_longname" : "live.tab[61]",
							"parameter_shortname" : "live.tab",
							"parameter_type" : 2,
							"parameter_enum" : [ "Off", "On" ],
							"parameter_unitstyle" : 0
						}

					}
,
					"spacing_x" : 3.0,
					"spacing_y" : 3.0,
					"varname" : "live.tab[21]"
				}

			}
, 			{
				"box" : 				{
					"fontface" : 1,
					"fontsize" : 10.0,
					"id" : "obj-298",
					"maxclass" : "comment",
					"numinlets" : 1,
					"numoutlets" : 0,
					"patching_rect" : [ 143.125, 480.0, 67.0, 18.0 ],
					"style" : "",
					"text" : "Arpeggiator",
					"textcolor" : [ 0.862745, 0.870588, 0.878431, 1.0 ],
					"textjustification" : 1
				}

			}
, 			{
				"box" : 				{
					"fontface" : 1,
					"fontsize" : 10.0,
					"id" : "obj-299",
					"maxclass" : "comment",
					"numinlets" : 1,
					"numoutlets" : 0,
					"patching_rect" : [ 10.0, 280.0, 19.0, 18.0 ],
					"style" : "",
					"text" : "B",
					"textcolor" : [ 0.862745, 0.870588, 0.878431, 1.0 ]
				}

			}
, 			{
				"box" : 				{
					"fontface" : 1,
					"fontsize" : 10.0,
					"id" : "obj-300",
					"maxclass" : "comment",
					"numinlets" : 1,
					"numoutlets" : 0,
					"patching_rect" : [ 10.0, 60.0, 20.0, 18.0 ],
					"style" : "",
					"text" : " A",
					"textcolor" : [ 0.862745, 0.870588, 0.878431, 1.0 ]
				}

			}
, 			{
				"box" : 				{
					"fontface" : 1,
					"fontsize" : 10.0,
					"id" : "obj-301",
					"maxclass" : "comment",
					"numinlets" : 1,
					"numoutlets" : 0,
					"patching_rect" : [ 467.335449, 480.0, 73.0, 18.0 ],
					"style" : "",
					"text" : "Tempo-in Div",
					"textcolor" : [ 0.862745, 0.870588, 0.878431, 1.0 ],
					"textjustification" : 1
				}

			}
, 			{
				"box" : 				{
					"fontface" : 1,
					"fontsize" : 10.0,
					"id" : "obj-302",
					"maxclass" : "comment",
					"numinlets" : 1,
					"numoutlets" : 0,
					"patching_rect" : [ 40.625, 480.0, 66.0, 18.0 ],
					"style" : "",
					"text" : "Portamento",
					"textcolor" : [ 0.862745, 0.870588, 0.878431, 1.0 ],
					"textjustification" : 1
				}

			}
, 			{
				"box" : 				{
					"fontface" : 1,
					"fontsize" : 10.0,
					"id" : "obj-303",
					"linecount" : 2,
					"maxclass" : "comment",
					"numinlets" : 1,
					"numoutlets" : 0,
					"patching_rect" : [ 236.75, 12.25, 44.0, 29.0 ],
					"style" : "",
					"text" : "Gate\nSource",
					"textcolor" : [ 0.862745, 0.870588, 0.878431, 1.0 ],
					"textjustification" : 1
				}

			}
, 			{
				"box" : 				{
					"fontface" : 1,
					"fontsize" : 10.0,
					"id" : "obj-304",
					"linecount" : 2,
					"maxclass" : "comment",
					"numinlets" : 1,
					"numoutlets" : 0,
					"patching_rect" : [ 140.0, 12.25, 44.0, 29.0 ],
					"style" : "",
					"text" : "CV \nSource",
					"textcolor" : [ 0.862745, 0.870588, 0.878431, 1.0 ],
					"textjustification" : 1
				}

			}
, 			{
				"box" : 				{
					"fontface" : 1,
					"fontsize" : 10.0,
					"id" : "obj-305",
					"linecount" : 2,
					"maxclass" : "comment",
					"numinlets" : 1,
					"numoutlets" : 0,
					"patching_rect" : [ 56.625, 12.25, 50.0, 29.0 ],
					"style" : "",
					"text" : "MIDI\nChannel",
					"textcolor" : [ 0.862745, 0.870588, 0.878431, 1.0 ],
					"textjustification" : 1
				}

			}
, 			{
				"box" : 				{
					"activedialcolor" : [ 0.439216, 0.74902, 0.254902, 1.0 ],
					"activeneedlecolor" : [ 0.529648, 0.52966, 0.529557, 1.0 ],
					"focusbordercolor" : [ 0.529648, 0.52966, 0.529557, 1.0 ],
					"id" : "obj-306",
					"maxclass" : "live.dial",
					"numinlets" : 1,
					"numoutlets" : 2,
					"outlettype" : [ "", "float" ],
					"parameter_enable" : 1,
					"patching_rect" : [ 37.125, 578.5, 44.0, 36.0 ],
					"presentation_rect" : [ 1615.0, 584.0, 44.0, 36.0 ],
					"saved_attribute_attributes" : 					{
						"valueof" : 						{
							"parameter_longname" : "live.dial[43]",
							"parameter_shortname" : "live.dial",
							"parameter_type" : 0,
							"parameter_unitstyle" : 0
						}

					}
,
					"showname" : 0,
					"textcolor" : [ 0.862745, 0.870588, 0.878431, 1.0 ],
					"tribordercolor" : [ 0.862745, 0.870588, 0.878431, 1.0 ],
					"varname" : "live.dial[11]"
				}

			}
, 			{
				"box" : 				{
					"activedialcolor" : [ 0.439216, 0.74902, 0.254902, 1.0 ],
					"activeneedlecolor" : [ 0.529648, 0.52966, 0.529557, 1.0 ],
					"focusbordercolor" : [ 0.529648, 0.52966, 0.529557, 1.0 ],
					"id" : "obj-312",
					"maxclass" : "live.dial",
					"numinlets" : 1,
					"numoutlets" : 2,
					"outlettype" : [ "", "float" ],
					"parameter_enable" : 1,
					"patching_rect" : [ 320.4375, 116.25, 44.0, 36.0 ],
					"presentation_rect" : [ 1426.0, 586.0, 44.0, 36.0 ],
					"saved_attribute_attributes" : 					{
						"valueof" : 						{
							"parameter_longname" : "live.dial[47]",
							"parameter_shortname" : "live.dial",
							"parameter_type" : 0,
							"parameter_unitstyle" : 0
						}

					}
,
					"showname" : 0,
					"textcolor" : [ 0.862745, 0.870588, 0.878431, 1.0 ],
					"tribordercolor" : [ 0.862745, 0.870588, 0.878431, 1.0 ],
					"varname" : "live.dial[17]"
				}

			}
, 			{
				"box" : 				{
					"angle" : 269.355713,
					"grad1" : [ 0.199644, 0.199644, 0.199644, 1.0 ],
					"grad2" : [ 0.19663, 0.19663, 0.19663, 1.0 ],
					"id" : "obj-314",
					"maxclass" : "panel",
					"mode" : 1,
					"numinlets" : 1,
					"numoutlets" : 0,
					"patching_rect" : [ 63.625, 524.875, 20.0, 20.0 ],
					"proportion" : 0.39,
					"pt1" : [ 0.509901, 0.069565 ],
					"pt2" : [ 0.5, 0.95 ],
					"style" : ""
				}

			}
 ],
		"lines" : [ 			{
				"patchline" : 				{
					"destination" : [ "obj-100", 0 ],
					"source" : [ "obj-101", 0 ]
				}

			}
, 			{
				"patchline" : 				{
					"destination" : [ "obj-102", 0 ],
					"source" : [ "obj-103", 0 ]
				}

			}
, 			{
				"patchline" : 				{
					"destination" : [ "obj-104", 0 ],
					"source" : [ "obj-105", 0 ]
				}

			}
, 			{
				"patchline" : 				{
					"destination" : [ "obj-105", 0 ],
					"source" : [ "obj-106", 0 ]
				}

			}
, 			{
				"patchline" : 				{
					"destination" : [ "obj-108", 0 ],
					"source" : [ "obj-109", 0 ]
				}

			}
, 			{
				"patchline" : 				{
					"destination" : [ "obj-111", 0 ],
					"source" : [ "obj-110", 0 ]
				}

			}
, 			{
				"patchline" : 				{
					"destination" : [ "obj-108", 1 ],
					"source" : [ "obj-111", 1 ]
				}

			}
, 			{
				"patchline" : 				{
					"destination" : [ "obj-108", 0 ],
					"source" : [ "obj-111", 0 ]
				}

			}
, 			{
				"patchline" : 				{
					"destination" : [ "obj-77", 0 ],
					"source" : [ "obj-20", 0 ]
				}

			}
, 			{
				"patchline" : 				{
					"destination" : [ "obj-78", 0 ],
					"source" : [ "obj-21", 0 ]
				}

			}
, 			{
				"patchline" : 				{
					"destination" : [ "obj-80", 0 ],
					"source" : [ "obj-22", 0 ]
				}

			}
, 			{
				"patchline" : 				{
					"destination" : [ "obj-22", 0 ],
					"source" : [ "obj-23", 0 ]
				}

			}
, 			{
				"patchline" : 				{
					"destination" : [ "obj-79", 0 ],
					"source" : [ "obj-24", 0 ]
				}

			}
, 			{
				"patchline" : 				{
					"destination" : [ "obj-84", 0 ],
					"source" : [ "obj-25", 0 ]
				}

			}
, 			{
				"patchline" : 				{
					"destination" : [ "obj-25", 0 ],
					"source" : [ "obj-26", 0 ]
				}

			}
, 			{
				"patchline" : 				{
					"destination" : [ "obj-83", 0 ],
					"source" : [ "obj-27", 0 ]
				}

			}
, 			{
				"patchline" : 				{
					"destination" : [ "obj-27", 0 ],
					"source" : [ "obj-28", 0 ]
				}

			}
, 			{
				"patchline" : 				{
					"destination" : [ "obj-101", 0 ],
					"source" : [ "obj-281", 0 ]
				}

			}
, 			{
				"patchline" : 				{
					"destination" : [ "obj-99", 0 ],
					"source" : [ "obj-282", 0 ]
				}

			}
, 			{
				"patchline" : 				{
					"destination" : [ "obj-21", 0 ],
					"source" : [ "obj-290", 0 ]
				}

			}
, 			{
				"patchline" : 				{
					"destination" : [ "obj-20", 0 ],
					"source" : [ "obj-292", 0 ]
				}

			}
, 			{
				"patchline" : 				{
					"destination" : [ "obj-103", 0 ],
					"source" : [ "obj-297", 0 ]
				}

			}
, 			{
				"patchline" : 				{
					"destination" : [ "obj-93", 0 ],
					"source" : [ "obj-306", 0 ]
				}

			}
, 			{
				"patchline" : 				{
					"destination" : [ "obj-24", 0 ],
					"source" : [ "obj-312", 0 ]
				}

			}
, 			{
				"patchline" : 				{
					"destination" : [ "obj-357", 0 ],
					"source" : [ "obj-354", 0 ]
				}

			}
, 			{
				"patchline" : 				{
					"destination" : [ "obj-354", 0 ],
					"source" : [ "obj-355", 0 ]
				}

			}
, 			{
				"patchline" : 				{
					"destination" : [ "obj-109", 0 ],
					"source" : [ "obj-357", 1 ]
				}

			}
, 			{
				"patchline" : 				{
					"destination" : [ "obj-85", 0 ],
					"source" : [ "obj-65", 0 ]
				}

			}
, 			{
				"patchline" : 				{
					"destination" : [ "obj-65", 0 ],
					"source" : [ "obj-66", 0 ]
				}

			}
, 			{
				"patchline" : 				{
					"destination" : [ "obj-86", 0 ],
					"source" : [ "obj-67", 0 ]
				}

			}
, 			{
				"patchline" : 				{
					"destination" : [ "obj-67", 0 ],
					"source" : [ "obj-68", 0 ]
				}

			}
, 			{
				"patchline" : 				{
					"destination" : [ "obj-87", 0 ],
					"source" : [ "obj-69", 0 ]
				}

			}
, 			{
				"patchline" : 				{
					"destination" : [ "obj-88", 0 ],
					"source" : [ "obj-70", 0 ]
				}

			}
, 			{
				"patchline" : 				{
					"destination" : [ "obj-70", 0 ],
					"source" : [ "obj-71", 0 ]
				}

			}
, 			{
				"patchline" : 				{
					"destination" : [ "obj-89", 0 ],
					"source" : [ "obj-72", 0 ]
				}

			}
, 			{
				"patchline" : 				{
					"destination" : [ "obj-90", 0 ],
					"source" : [ "obj-73", 0 ]
				}

			}
, 			{
				"patchline" : 				{
					"destination" : [ "obj-72", 0 ],
					"source" : [ "obj-74", 0 ]
				}

			}
, 			{
				"patchline" : 				{
					"destination" : [ "obj-73", 0 ],
					"source" : [ "obj-75", 0 ]
				}

			}
, 			{
				"patchline" : 				{
					"destination" : [ "obj-69", 0 ],
					"source" : [ "obj-76", 0 ]
				}

			}
, 			{
				"patchline" : 				{
					"destination" : [ "obj-92", 0 ],
					"source" : [ "obj-93", 0 ]
				}

			}
, 			{
				"patchline" : 				{
					"destination" : [ "obj-94", 0 ],
					"source" : [ "obj-95", 0 ]
				}

			}
, 			{
				"patchline" : 				{
					"destination" : [ "obj-95", 0 ],
					"source" : [ "obj-96", 0 ]
				}

			}
, 			{
				"patchline" : 				{
					"destination" : [ "obj-98", 0 ],
					"source" : [ "obj-99", 0 ]
				}

			}
 ],
		"parameters" : 		{
			"obj-74" : [ "live.tab[23]", "live.tab[2]", 0 ],
			"obj-66" : [ "live.dial[8]", "live.dial", 0 ],
			"obj-297" : [ "live.tab[61]", "live.tab", 0 ],
			"obj-106" : [ "live.tab[3]", "live.tab", 0 ],
			"obj-290" : [ "live.tab[20]", "live.tab[2]", 0 ],
			"obj-96" : [ "live.dial[11]", "live.dial", 0 ],
			"obj-282" : [ "live.tab[13]", "live.tab", 0 ],
			"obj-26" : [ "live.dial[3]", "live.dial", 0 ],
			"obj-292" : [ "live.tab[22]", "live.tab", 0 ],
			"obj-75" : [ "live.tab[24]", "live.tab", 0 ],
			"obj-71" : [ "live.tab[15]", "live.tab[2]", 0 ],
			"obj-281" : [ "live.tab[10]", "live.tab", 0 ],
			"obj-306" : [ "live.dial[43]", "live.dial", 0 ],
			"obj-28" : [ "live.dial[4]", "live.dial", 0 ],
			"obj-23" : [ "live.tab[2]", "live.tab[2]", 0 ],
			"obj-312" : [ "live.dial[47]", "live.dial", 0 ],
			"obj-76" : [ "live.dial[10]", "live.dial", 0 ],
			"obj-68" : [ "live.dial[9]", "live.dial", 0 ],
			"obj-357" : [ "umenu[8]", "umenu", 0 ]
		}
,
		"dependency_cache" : [  ],
		"autosave" : 0,
		"bgfillcolor_type" : "gradient",
		"bgfillcolor_color1" : [ 0.376471, 0.384314, 0.4, 1.0 ],
		"bgfillcolor_color2" : [ 0.290196, 0.309804, 0.301961, 1.0 ],
		"bgfillcolor_color" : [ 0.290196, 0.309804, 0.301961, 1.0 ],
		"bgfillcolor_angle" : 270.0,
		"bgfillcolor_proportion" : 0.39
	}

}
